<?xml version="1.0" encoding="utf-8"?>
<!-- Generator: Adobe Illustrator 16.0.4, SVG Export Plug-In . SVG Version: 6.00 Build 0)  -->
<svg version="1.2" baseProfile="tiny" id="Layer_1" xmlns="http://www.w3.org/2000/svg" xmlns:xlink="http://www.w3.org/1999/xlink"
	 x="0px" y="0px" width="512px" height="512px" viewBox="0 0 512 512" xml:space="preserve">
<path d="M477.118,255.633l35.031-57l-56.875-36.484l6.125-66.156l-67.5-8.734l-24-62.312l-64.501,20.688l-49.25-46.031
	l-49.25,46.031l-64.5-20.688l-24,62.312l-67.5,8.734l6.188,66.156L0.149,198.633l35,57l-35,56.906l56.938,36.469l-6.188,66.188
	l67.5,8.78l24,62.188l64.5-20.625l49.25,46.062l49.25-46.062l64.501,20.625l24-62.188l67.5-8.78l-6.125-66.188l56.875-36.469
	L477.118,255.633z M384.149,287.633h-95.906v95.969h-64.188v-95.969h-95.906v-64.078h95.906v-95.953h64.188v95.953h95.906V287.633z"
	/>
</svg>
