<?xml version="1.0" encoding="utf-8"?>
<!-- Generator: Adobe Illustrator 16.0.3, SVG Export Plug-In . SVG Version: 6.00 Build 0)  -->
<svg version="1.2" baseProfile="tiny" id="Layer_1" xmlns="http://www.w3.org/2000/svg" xmlns:xlink="http://www.w3.org/1999/xlink"
	 x="0px" y="0px" width="512px" height="512px" viewBox="0 0 512 512" xml:space="preserve">
<path d="M502.597,117.468L393.763,8.601c-11.771-11.771-30.909-11.771-42.726,0.046l-91.445,91.494l151.511,151.501l91.494-91.493
	C514.402,148.377,514.402,129.25,502.597,117.468z M121.821,237.83l151.58,151.548L389.06,273.726l-151.499-151.56L121.821,237.83z
	 M213.35,263.908c-6.087,6.1-16.025,6.1-22.159,0c-6.168-6.133-6.168-16.065,0-22.193c6.133-6.133,16.072-6.133,22.159,0
	C219.483,247.843,219.483,257.775,213.35,263.908z M297.531,247.641c6.133-6.133,16.06-6.133,22.193,0
	c6.133,6.133,6.133,16.072,0,22.193c-6.134,6.128-16.061,6.128-22.193,0C291.433,263.713,291.433,253.774,297.531,247.641z
	 M269.527,320.037c-6.096,6.14-16.068,6.14-22.202,0c-6.133-6.081-6.133-16.065,0-22.199c6.134-6.115,16.106-6.115,22.202,0
	C275.649,303.972,275.649,313.956,269.527,320.037z M263.559,191.507c6.165,6.133,6.165,16.071,0.034,22.205
	c-6.134,6.087-16.106,6.087-22.193,0c-6.133-6.134-6.133-16.072,0-22.205C247.487,185.368,257.459,185.368,263.559,191.507z
	 M8.285,351.396c-11.771,11.777-11.771,30.921,0.046,42.687l108.784,108.867c11.82,11.771,30.947,11.771,42.764,0l91.494-91.545
	L99.824,259.862L8.285,351.396z"/>
</svg>
