<?xml version="1.0" encoding="utf-8"?>
<!-- Generator: Adobe Illustrator 16.0.3, SVG Export Plug-In . SVG Version: 6.00 Build 0)  -->
<svg version="1.2" baseProfile="tiny" id="Layer_1" xmlns="http://www.w3.org/2000/svg" xmlns:xlink="http://www.w3.org/1999/xlink"
	 x="0px" y="0px" width="512px" height="512px" viewBox="0 0 512 512" xml:space="preserve">
<path fill="#0F0808" d="M357.695,370.583h-52.473v53.167h52.473V370.583z M283.611,228.431h-52.667v53.111h52.667V228.431z
	 M357.695,299.528h-52.473v53.111h52.473V299.528z M431.861,228.431h-52.666v53.111h52.666V228.431z M283.611,299.528h-52.667
	v53.111h52.667V299.528z M357.695,228.431h-52.473v53.111h52.473V228.431z M431.861,299.528h-52.666v53.111h52.666V299.528z
	 M135.417,370.583h-52.5v53.167h52.5V370.583z M135.417,299.528h-52.5v53.111h52.5V299.528z M418.25,41.153V64.5
	c9.139,8.097,14.806,19.917,14.806,33.097c0,24.458-19.528,44.25-43.667,44.25c-24.277,0-43.916-19.792-43.916-44.25
	c0-13.18,5.777-25,14.805-33.097V41.153H155.639V64.5c8.972,8.097,14.833,19.917,14.833,33.097c0,24.458-19.722,44.25-43.889,44.25
	c-24.222,0-43.722-19.792-43.722-44.25c0-13.18,5.667-25,14.833-33.097V41.153H0V512h512V41.153H418.25z M465.139,464.778H46.778
	V170.653h418.361V464.778z M209.611,228.431h-52.694v53.111h52.694V228.431z M209.611,370.583h-52.694v53.167h52.694V370.583z
	 M283.611,370.583h-52.667v53.167h52.667V370.583z M209.611,299.528h-52.694v53.111h52.694V299.528z M126.583,123.389
	c12.111,0,21.778-9.861,21.778-22.028V22.028C148.361,9.861,138.695,0,126.583,0c-11.972,0-21.833,9.861-21.833,22.028v79.333
	C104.75,113.528,114.611,123.389,126.583,123.389z M389.389,123.389c11.917,0,21.778-9.861,21.778-22.028V22.028
	C411.167,9.861,401.306,0,389.389,0c-12.166,0-21.805,9.861-21.805,22.028v79.333C367.584,113.528,377.223,123.389,389.389,123.389z
	"/>
</svg>
