<?xml version="1.0" encoding="utf-8"?>
<!-- Generator: Adobe Illustrator 16.0.4, SVG Export Plug-In . SVG Version: 6.00 Build 0)  -->
<svg version="1.2" baseProfile="tiny" id="Layer_1" xmlns="http://www.w3.org/2000/svg" xmlns:xlink="http://www.w3.org/1999/xlink"
	 x="0px" y="0px" width="512px" height="512px" viewBox="0 0 512 512" xml:space="preserve">
<path d="M379.773,286.5h-91.375v91.387h-61.023V286.5H136v-61.012h91.375v-91.375h61.023v91.375h91.375V286.5z M256,58.182
	C146.92,58.182,58.182,146.921,58.182,256c0,109.08,88.738,197.818,197.818,197.818S453.818,365.08,453.818,256
	C453.818,146.921,365.08,58.182,256,58.182 M256,0c141.387,0,256,114.613,256,256c0,141.387-114.613,256-256,256
	C114.613,512,0,397.387,0,256S114.613,0,256,0L256,0z"/>
</svg>
