<?xml version="1.0" encoding="utf-8"?>
<!-- Generator: Adobe Illustrator 16.0.4, SVG Export Plug-In . SVG Version: 6.00 Build 0)  -->
<svg version="1.2" baseProfile="tiny" id="Layer_1" xmlns="http://www.w3.org/2000/svg" xmlns:xlink="http://www.w3.org/1999/xlink"
	 x="0px" y="0px" width="512px" height="512px" viewBox="0 0 512 512" xml:space="preserve">
<path d="M256.006,0C114.576,0,0,114.587,0,255.988C0,397.364,114.576,512,256.006,512C397.38,512,512,397.364,512,255.988
	C512,114.587,397.38,0,256.006,0z M88.437,211.493l-24.788,5.358c-2.546,0.536-5.365-1.145-5.627-3.678l-1.747-13.815
	c-0.262-2.21,0.28-3.939,1.474-5.035l40.479-34.096h19.704c2.947,0,5.097,2.497,5.097,5.297v180.842
	c0,2.825-2.149,5.321-5.097,5.321H93.801c-3.081,0-5.364-2.496-5.364-5.321V211.493z M151.586,255.988
	c0-61.665,25.878-98.586,70.918-98.586c45.034,0,71.034,36.921,71.034,98.586c0,61.653-26,98.513-71.034,98.513
	C177.464,354.501,151.586,317.641,151.586,255.988z M256.542,255.988c0-41.682-12.331-65.385-34.038-65.385
	c-21.713,0-34.05,23.703-34.05,65.385c0,41.962,12.337,65.282,34.05,65.282C244.211,321.27,256.542,297.95,256.542,255.988z
	 M313.814,255.988c0-61.665,26-98.586,71.034-98.586s70.913,36.921,70.913,98.586c0,61.653-25.879,98.513-70.913,98.513
	S313.814,317.641,313.814,255.988z M418.898,255.988c0-41.682-12.336-65.385-34.05-65.385c-21.701,0-34.05,23.703-34.05,65.385
	c0,41.962,12.349,65.282,34.05,65.282C406.562,321.27,418.898,297.95,418.898,255.988z"/>
</svg>
