<?xml version="1.0" encoding="utf-8"?>
<!-- Generator: Adobe Illustrator 16.0.4, SVG Export Plug-In . SVG Version: 6.00 Build 0)  -->
<svg version="1.2" baseProfile="tiny" id="Layer_1" xmlns="http://www.w3.org/2000/svg" xmlns:xlink="http://www.w3.org/1999/xlink"
	 x="0px" y="0px" width="512px" height="512px" viewBox="0 0 512 512" xml:space="preserve">
<path d="M160.926,179.731C73.416,178.034,1.322,231.94,0.02,300.195c-0.479,23.707,7.708,46.062,22.188,65.146
	c24.854,32.011-2.25,87.104-2.25,87.104l80.292-34.625c17.271,5.479,36.083,8.688,55.771,9.062
	c87.511,1.75,159.584-52.209,160.917-120.489C318.271,238.195,248.468,181.45,160.926,179.731z M489.833,245.226L489.833,245.226
	c14.479-19.141,22.646-41.438,22.146-65.172c-1.312-68.239-73.386-122.219-160.905-120.458
	c-73.323,1.463-134.281,41.573-151.303,94.682c34.261,6.427,65.708,20.453,91.021,41.037c36.552,29.661,56.261,69.24,55.542,111.38
	c3.188,0.082,6.416,0.104,9.625,0c19.697-0.303,38.5-3.5,55.812-9.021l80.334,34.604
	C492.104,332.277,464.896,277.227,489.833,245.226z"/>
</svg>
