<?xml version="1.0" encoding="utf-8"?>
<!-- Generator: Adobe Illustrator 16.0.4, SVG Export Plug-In . SVG Version: 6.00 Build 0)  -->
<svg version="1.2" baseProfile="tiny" id="Layer_1" xmlns="http://www.w3.org/2000/svg" xmlns:xlink="http://www.w3.org/1999/xlink"
	 x="0px" y="0px" width="512px" height="512px" viewBox="0 0 512 512" xml:space="preserve">
<path d="M114.399,392.039l124.746-56.57l176.953-176.832l-31.184-31.163L278.35,234.059l-18.59-18.711l106.554-106.522
	l-19.021-19.099L170.349,266.605L114.399,392.039z M202.529,273.395l27.388-27.397l3.942,26.183l25.941,3.627l-27.367,27.492
	l-54.472,24.684L202.529,273.395z M505.885,68.918l-69.016-68.92l-58.582,58.624l68.994,68.853L505.885,68.918z M380.404,239.427
	v236.485H42.217V124.077h220.352l36.5-36.08H6.116v424.005h410.401V203.96L380.404,239.427z"/>
</svg>
