<?xml version="1.0" encoding="utf-8"?>
<!-- Generator: Adobe Illustrator 16.0.3, SVG Export Plug-In . SVG Version: 6.00 Build 0)  -->
<svg version="1.2" baseProfile="tiny" id="Layer_1" xmlns="http://www.w3.org/2000/svg" xmlns:xlink="http://www.w3.org/1999/xlink"
	 x="0px" y="0px" width="512px" height="512px" viewBox="0 0 512 512" xml:space="preserve">
<path d="M475.229,402.671l-0.285-0.562l-0.351-0.548L369.53,224.927c-13.473-24.936-25.25-71.096-25.25-99.188V44.144h22.152V0
	H145.517v44.144h25.856v81.595c0,28.026-11.668,73.982-25.133,98.999L37.686,401.093l-0.468,0.782l-0.449,0.796
	c-14.272,26.075-15.102,53.474-2.261,75.173C47.396,499.558,71.791,512,101.523,512h308.966c29.706,0,54.123-12.442,66.997-34.156
	C490.33,456.145,489.512,428.746,475.229,402.671z M239.7,249.022L130.32,426.715v0.029l0,0v-0.029l-37.579-23.131l108.789-176.728
	c14.148-25.425,27.453-77.526,27.073-106.305V59.574h44.144v60.977c-0.395,39.796-13.999,92.919-32.761,128.041L239.7,249.022z
	 M289.002,366.943c-15.532,0-28.085-12.552-28.085-28.084c0-15.482,12.553-28.049,28.085-28.049
	c15.475,0,28.085,12.566,28.085,28.049C317.087,354.392,304.477,366.943,289.002,366.943z M375.024,458.497
	c-24.65,0-44.67-19.982-44.67-44.626c0-24.666,20.02-44.655,44.67-44.655c24.666,0,44.626,19.989,44.626,44.655
	C419.65,438.515,399.69,458.497,375.024,458.497z"/>
</svg>
