<?xml version="1.0" encoding="utf-8"?>
<!-- Generator: Adobe Illustrator 16.0.4, SVG Export Plug-In . SVG Version: 6.00 Build 0)  -->
<svg version="1.2" baseProfile="tiny" id="Layer_1" xmlns="http://www.w3.org/2000/svg" xmlns:xlink="http://www.w3.org/1999/xlink"
	 x="0px" y="0px" width="512px" height="512px" viewBox="0 0 512 512" xml:space="preserve">
<path d="M255.994,43.435C114.534,43.436,0.007,158.05,0,299.432v89.492h40.439v-89.492c0.014-59.621,24.047-113.382,63.061-152.499
	c39.034-39.012,92.959-63.128,152.494-63.128c59.541,0,113.465,24.116,152.5,63.128c39.012,39.117,63.047,92.878,63.061,152.499
	v89.492H512v-89.492C511.986,158.05,397.459,43.436,255.994,43.435z M148.911,276.692H95.567c-8.06,0-14.595,6.626-14.595,14.852
	v162.279c0,8.119,6.535,14.75,14.595,14.75h53.344c8.048,0,14.589-6.631,14.589-14.75V291.544
	C163.5,283.318,156.959,276.692,148.911,276.692z M416.433,276.692h-53.352c-8.047,0-14.587,6.626-14.587,14.75v162.376
	c0,8.124,6.54,14.755,14.587,14.755h53.352c8.054,0,14.587-6.631,14.587-14.755V291.442
	C431.02,283.318,424.486,276.692,416.433,276.692z"/>
</svg>
