<?xml version="1.0" encoding="utf-8"?>
<!-- Generator: Adobe Illustrator 16.0.3, SVG Export Plug-In . SVG Version: 6.00 Build 0)  -->
<svg version="1.2" baseProfile="tiny" id="Layer_1" xmlns="http://www.w3.org/2000/svg" xmlns:xlink="http://www.w3.org/1999/xlink"
	 x="0px" y="0px" width="512px" height="512px" viewBox="0 0 512 512" xml:space="preserve">
<path d="M82.01,336.379c0-7.431,0.327-14.753,0.949-21.989H24.09c-11.757,0-21.289,9.528-21.289,21.271
	c0,11.735,9.532,21.257,21.289,21.257h58.782C82.297,350.177,82.01,343.32,82.01,336.379z M472.331,212.303
	c8.322-8.321,8.322-21.774,0-30.092c-8.278-8.304-21.773-8.304-30.052,0l-37.598,37.591c7.329,13.039,13.424,27.109,18.173,41.977
	L472.331,212.303z M39.454,465.054c-8.322,8.3-8.322,21.781,0,30.06c8.322,8.321,21.774,8.321,30.052,0l42.183-42.161
	c-7.287-13.028-13.409-27.106-18.167-41.967L39.454,465.054z M92.401,265.258c4.556-15.03,10.549-29.255,17.717-42.477
	l-40.569-40.569c-8.321-8.304-21.773-8.304-30.095,0c-8.322,8.318-8.322,21.771,0,30.092L92.401,265.258z M421.698,414.42
	c-4.93,14.703-11.211,28.587-18.713,41.421l39.294,39.272c8.278,8.321,21.773,8.321,30.052,0c8.322-8.278,8.322-21.76,0-30.06
	L421.698,414.42z M487.695,314.39h-54.284c0.633,7.236,0.963,14.559,0.963,21.989c0,6.941-0.302,13.798-0.876,20.538h54.197
	c11.757,0,21.271-9.521,21.271-21.257C508.966,323.918,499.452,314.39,487.695,314.39z M138.191,18.465
	c34.853,0.251,50.633,13.187,59.9,27.616c7.621,12.108,9.777,26.187,10.262,34.551c-19.445,13.331-33.354,34.069-37.752,58.186
	h176.951c-4.341-24.117-18.296-44.855-37.713-58.186c0.481-8.386,2.638-22.442,10.262-34.551
	c9.234-14.408,25.051-27.343,59.903-27.616c5.103,0,9.241-4.136,9.241-9.234c0-5.088-4.139-9.227-9.241-9.227
	c-39.782-0.259-63.755,16.808-75.598,36.304c-7.617,12.295-10.837,25.029-12.202,34.939c-10.233-4.096-21.415-6.353-33.089-6.374
	c-11.709,0.021-22.891,2.303-33.153,6.374c-1.366-9.91-4.599-22.644-12.173-34.939C201.903,16.812,177.93-0.255,138.191,0.004
	c-5.131,0-9.241,4.139-9.241,9.227C128.95,14.329,133.06,18.465,138.191,18.465z M114.879,335.287
	c0,91.393,56.221,166.861,128.215,176.714v-335.88h-48.19C147.5,205.293,114.879,265.668,114.879,335.287z M169.274,366.043
	c-19.614,0-35.481-10.93-35.481-24.403c0-13.475,15.867-24.383,35.481-24.383c19.593,0,35.489,10.908,35.489,24.383
	C204.763,355.113,188.868,366.043,169.274,366.043z M203.067,447.132c-9.155,0-16.571-11.247-16.571-25.095
	s7.416-25.086,16.571-25.086c9.098,0,16.51,11.238,16.51,25.086S212.165,447.132,203.067,447.132z M215.197,278.186
	c-9.528,9.551-28.485,6.029-42.355-7.833c-13.826-13.854-17.351-32.833-7.833-42.354c9.528-9.518,28.482-6.008,42.355,7.84
	C221.23,249.707,224.755,268.671,215.197,278.186z M323.291,176.121h-48.24v335.88c72.041-9.853,128.266-85.321,128.266-176.714
	C403.316,265.668,370.647,205.293,323.291,176.121z M309.989,235.838c13.877-13.848,32.841-17.358,42.362-7.84
	c9.529,9.521,6.008,28.5-7.868,42.354c-13.862,13.862-32.798,17.384-42.349,7.833C292.606,268.671,296.128,249.707,309.989,235.838z
	 M314.302,447.132c-9.148,0-16.558-11.247-16.558-25.095s7.409-25.086,16.558-25.086c9.147,0,16.557,11.238,16.557,25.086
	S323.449,447.132,314.302,447.132z M348.083,366.043c-19.618,0-35.478-10.93-35.478-24.403c0-13.475,15.859-24.383,35.478-24.383
	c19.583,0,35.485,10.908,35.485,24.383C383.568,355.113,367.666,366.043,348.083,366.043z"/>
</svg>
