<?xml version="1.0" encoding="utf-8"?>
<!-- Generator: Adobe Illustrator 16.0.4, SVG Export Plug-In . SVG Version: 6.00 Build 0)  -->
<svg version="1.2" baseProfile="tiny" id="Layer_1" xmlns="http://www.w3.org/2000/svg" xmlns:xlink="http://www.w3.org/1999/xlink"
	 x="0px" y="0px" width="512px" height="512px" viewBox="0 0 512 512" xml:space="preserve">
<path d="M256.114,314.51c-18.93,0.021-34.29,15.33-34.33,34.21c0.04,18.8,15.4,34.04,34.33,34.13
	c18.671-0.09,34.061-15.33,34.08-34.13C290.175,329.84,274.785,314.53,256.114,314.51z M381.625,244.24V132.15
	c0-35.806-13.78-68.681-36.041-92.69C323.154,15.395,291.205-0.02,256.114,0c-35.33-0.02-67.27,15.395-89.5,39.46
	c-22.49,24.01-36.28,56.885-36.28,92.69v112.09c-23.52,28.29-37.62,64.729-37.62,104.479c0,90.15,73.05,163.28,163.399,163.28
	c90.091,0,163.171-73.13,163.171-163.28C419.285,308.97,405.185,272.53,381.625,244.24z M176.614,363.22h-36.97v-29.079h36.97
	V363.22z M270.625,465.12h-29.041v-36.97h29.041V465.12z M256.114,406.88c-32.32-0.01-58.34-26.1-58.34-58.16
	c0-32.21,26.02-58.22,58.34-58.22c32.07,0,58.08,26.01,58.08,58.22C314.194,380.78,288.185,406.87,256.114,406.88z M241.584,269.21
	v-36.97h29.041v36.97H241.584z M321.845,199.26c-20.08-8.899-42.24-13.91-65.73-13.91c-23.51,0-45.88,5.01-65.97,13.91V132.15
	c0-20.655,7.67-39,19.99-52.01c12.14-13.02,28.13-20.52,45.979-20.53c17.601,0.01,33.58,7.51,45.73,20.53
	c12.33,13.01,20,31.355,20,52.01V199.26z M372.345,363.22h-36.75v-29.079h36.75V363.22z"/>
</svg>
