<?xml version="1.0" encoding="utf-8"?>
<!-- Generator: Adobe Illustrator 16.0.3, SVG Export Plug-In . SVG Version: 6.00 Build 0)  -->
<svg version="1.2" baseProfile="tiny" id="Layer_1" xmlns="http://www.w3.org/2000/svg" xmlns:xlink="http://www.w3.org/1999/xlink"
	 x="0px" y="0px" width="512px" height="512px" viewBox="0 0 512 512" xml:space="preserve">
<path fill="#0F0808" d="M255.984,0C134.518,0,36.105,96.118,36.105,214.693c0,42.249,12.848,81.428,34.435,114.613
	C87.105,433.283,163.691,512,255.984,512c92.238,0,168.813-78.674,185.477-182.607c21.564-33.217,34.434-72.434,34.434-114.699
	C475.895,96.118,377.461,0,255.984,0z M255.984,481.869c-87.543,0-158.792-87.194-158.792-194.454
	c0-36.939,8.564-71.401,23.25-100.825c14.075-15.32,31.532-18.353,45.673-1.494c60.651,72.141,215.629-0.646,237.477,31.07
	c7.043,22.07,11.151,46.064,11.151,71.249C414.743,394.675,343.537,481.869,255.984,481.869z M212.604,301.23
	c0,17.076-13.848,30.967-30.934,30.967c-17.131,0-30.979-13.891-30.979-30.967s13.848-30.94,30.979-30.94
	C198.756,270.29,212.604,284.154,212.604,301.23z M361.232,301.23c0,17.076-13.782,30.967-30.955,30.967
	c-17.098,0-30.881-13.891-30.881-30.967s13.783-30.94,30.881-30.94C347.45,270.29,361.232,284.154,361.232,301.23z M313.516,403.012
	c3.762,6.25-20.988,25.858-57.531,25.782c-36.489,0.076-61.348-19.532-57.511-25.782c3.445-6.641,28.348-0.641,57.511-1.011
	C285.125,402.371,310.07,396.371,313.516,403.012z"/>
</svg>
