<?xml version="1.0" encoding="utf-8"?>
<!-- Generator: Adobe Illustrator 16.0.3, SVG Export Plug-In . SVG Version: 6.00 Build 0)  -->
<svg version="1.2" baseProfile="tiny" id="Layer_1" xmlns="http://www.w3.org/2000/svg" xmlns:xlink="http://www.w3.org/1999/xlink"
	 x="0px" y="0px" width="512px" height="512px" viewBox="0 0 512 512" xml:space="preserve">
<path d="M286.673,198.154c-2.067,1.664-3.923,3.933-5.144,6.442c-1.222,2.664-1.924,5.567-1.924,9.106
	c0,5.519,1.847,9.827,5.395,12.903c3.52,2.895,9.183,5.289,17.135,7.202v-40.779c-2.799,0-5.567,0.404-8.067,1.221
	C291.317,195.048,288.933,196.529,286.673,198.154z M337.77,282.48c-4.02-3.192-11.059-6.25-20.731-8.99v48.173
	c2.885-0.375,6.039-1.115,9.241-2.259c3.432-0.943,6.25-2.5,8.74-4.5c2.683-1.981,4.721-4.606,6.566-7.443
	c1.606-2.855,2.424-6.375,2.424-10.336C344.01,290.51,342,285.683,337.77,282.48z M309.5,53.298
	c-52.173,0-99.683,19.75-135.654,52.154c-30.836,0.519-59.49,3.644-84.471,8.49c-28.75,5.75-52.471,13.75-67.692,22.433
	C11.385,142.02,5.096,147.99,2.779,151.952c-1.221,2.202-1.548,3.49-1.586,4.615c0.038,1.183,0.365,2.433,1.586,4.48
	c1.24,2.308,3.904,5.145,7.827,8.317c7.904,6.346,21.097,13.385,38.183,19.24c18.058,6.067,40.222,11.135,64.914,14.404
	c-2.942,11.442-5.164,23.269-6.097,35.23c-8.663-1.211-17.038-2.471-25.221-4.038c-31.26-6.25-57.856-14.942-78.347-26.173
	c-0.884-0.692-1.961-1.192-2.846-1.856v31.673c0,1.183,0.327,2.673,1.586,4.779c1.24,2.317,3.904,5.365,7.827,8.529
	c7.904,6.356,21.097,13.192,38.183,19.048c16.885,5.663,37.135,10.375,60,13.827c1.664,12.788,4.76,25.336,8.76,37.259
	c-12.24-1.538-24.048-3.442-35.163-5.5c-31.26-6.259-57.856-14.74-78.347-26.173c-1.288-0.817-2.759-1.586-4.038-2.413v27.375
	c0,1.5,0.365,3.096,1.673,5.471c1.5,2.395,4.192,5.327,8.173,8.702c7.952,6.404,21.404,13.461,38.529,19.154
	c24.048,8.25,55.308,14.5,90.49,17.413c8.039,12.712,17.567,24.519,28.289,35.163c-30.269-1.096-59.019-4.26-84.442-9.153
	c-31.221-6.241-57.75-14.895-77.961-26.106c-1.212-0.73-2.404-1.48-3.558-2.23v30.73c0,1.231,0.327,2.462,1.586,4.789
	c1.24,2.298,3.904,5.153,7.827,8.346c7.904,6.355,21.097,13.365,38.183,19.067c34.404,11.788,83.933,19.395,138.798,19.375
	c15.481,0,30.529-0.519,44.856-1.702c23.74,9.635,49.798,15.106,77.058,15.106c111.788,0,202.5-90.692,202.5-202.683
	C512,144.038,421.288,53.298,309.5,53.298z M309.5,429.711c-95.77,0-173.702-77.932-173.702-173.691
	c0-95.779,77.933-173.51,173.702-173.51c95.577,0,173.5,77.73,173.5,173.51C483,351.779,405.077,429.711,309.5,429.711z
	 M309.5,113.904c-78.625,0-142.096,63.654-142.096,142.116c0,78.403,63.471,142.096,142.096,142.096
	c78.433,0,141.913-63.692,141.913-142.096C451.413,177.558,387.933,113.904,309.5,113.904z M376.817,312.529
	c-1.904,5.548-5.125,11.076-9.895,16.316c-4.721,5.222-11.105,9.981-19.26,14.25c-7.961,4.27-18.24,6.712-30.625,7.52v21.317
	h-14.903v-21.317c-18.645-1.279-33.27-7.125-43.654-17.327c-10.605-10.058-16.615-25.028-18.24-44.759h35.25
	c-0.27,9.5,2.346,16.99,7.52,22.519c5.163,5.52,11.538,9.058,19.125,10.615v-52.288c-0.799-0.346-1.98-0.74-3.289-1.154
	c-1.49-0.394-3.038-0.778-4.663-1.153c-6.27-1.635-12.26-3.597-18.25-5.913c-5.962-2.309-11.423-5.174-16.173-9.049
	c-4.741-3.663-8.433-8.365-11.442-13.952c-2.798-5.548-4.097-12.586-4.097-20.933c0-8.385,1.606-15.923,4.837-22.529
	c3.183-6.414,7.52-11.923,12.952-16.317c5.24-4.337,11.5-7.855,18.355-10.26c7.067-2.385,14.26-3.923,21.77-4.385v-19.317h14.903
	v19.317c7.51,0.817,14.414,2.423,21.048,4.817c6.674,2.414,12.337,5.875,17.404,10.183c5.096,4.097,9.115,9.491,12.27,15.827
	c3.173,6.355,4.885,13.875,5.52,22.548h-35.559c-0.096-6.692-2.316-12.509-6.288-17.019c-3.99-4.711-8.788-7.058-14.395-7.058
	v44.317c2,0.423,3.991,0.894,6.039,1.317c2.019,0.664,4.308,1.154,6.673,1.866c12.308,3.289,21.817,7.519,28.51,12.336
	c6.692,5.048,11.538,10.183,14.711,15.433c3.174,5.423,5.087,10.673,5.567,16.115c0.692,5.241,1.058,10,1.058,14.25
	C379.596,302.279,378.52,306.76,376.817,312.529z"/>
</svg>
