<?xml version="1.0" encoding="utf-8"?>
<!-- Generator: Adobe Illustrator 16.0.4, SVG Export Plug-In . SVG Version: 6.00 Build 0)  -->
<svg version="1.2" baseProfile="tiny" id="Layer_1" xmlns="http://www.w3.org/2000/svg" xmlns:xlink="http://www.w3.org/1999/xlink"
	 x="0px" y="0px" width="512px" height="512px" viewBox="0 0 512 512" xml:space="preserve">
<path d="M279.391,264.251v-109.57c0-10.726-8.757-19.47-19.47-19.47c-10.732,0-19.464,8.744-19.464,19.47v125.295l60.264,62.246
	c3.842,3.951,8.915,5.914,14,5.914c4.914,0,9.744-1.793,13.5-5.464c7.745-7.45,7.94-19.769,0.478-27.513L279.391,264.251z
	 M474.128,52.001C424.651,2.494,345.015,1.536,294.316,48.946c-11.279-1.713-22.769-2.579-34.396-2.579
	c-14,0-27.708,1.354-40.989,3.762C168.235,1.536,87.842,2.11,37.902,52.001c-50.404,50.343-50.501,131.857-0.5,182.463
	c-2.048,12.269-3.305,24.817-3.305,37.636c0,124.71,101.113,225.786,225.824,225.786c124.607,0,225.744-101.076,225.744-225.786
	c0-15.343-1.549-30.312-4.464-44.818C524.483,176.45,522.166,100.052,474.128,52.001z M259.921,429.359
	c-86.735,0-157.261-70.539-157.261-157.262c0-86.673,70.526-157.2,157.261-157.2c86.69,0,157.218,70.527,157.218,157.2
	C417.139,358.82,346.611,429.359,259.921,429.359z"/>
</svg>
