<?xml version="1.0" encoding="utf-8"?>
<!-- Generator: Adobe Illustrator 16.0.3, SVG Export Plug-In . SVG Version: 6.00 Build 0)  -->
<svg version="1.2" baseProfile="tiny" id="Layer_1" xmlns="http://www.w3.org/2000/svg" xmlns:xlink="http://www.w3.org/1999/xlink"
	 x="0px" y="0px" width="512px" height="512px" viewBox="0 0 512 512" xml:space="preserve">
<path d="M195.377,193.01l-63.97-63.976c32.244-31.857,76.399-51.482,125.328-51.482c49.393,0.024,93.762,19.905,126.179,52.262
	c32.333,32.411,52.237,76.762,52.262,126.172h77.571C512.734,114.588,398.139,0.01,256.734-0.025
	c-70.203,0-133.94,28.363-180.19,74.19L17.52,15.147V193.01H195.377z M383.579,381.403c-32.356,32.738-77.143,53-126.845,52.976
	c-49.381,0-93.732-19.893-126.143-52.237c-32.357-32.429-52.244-76.763-52.262-126.155H0.746
	c0.042,141.393,114.595,255.94,255.988,255.988c70.988,0,135.345-28.977,181.702-75.69l57.429,57.44V320.189H322.317
	L383.579,381.403z"/>
</svg>
