<?xml version="1.0" encoding="utf-8"?>
<!-- Generator: Adobe Illustrator 16.0.4, SVG Export Plug-In . SVG Version: 6.00 Build 0)  -->
<svg version="1.2" baseProfile="tiny" id="Layer_1" xmlns="http://www.w3.org/2000/svg" xmlns:xlink="http://www.w3.org/1999/xlink"
	 x="0px" y="0px" width="512px" height="512px" viewBox="0 0 512 512" xml:space="preserve">
<path d="M298.846,207.094c-13.529-3.704-27.937-6.004-42.878-6.004c-14.642,0-29.06,2.301-42.61,6.004V74.431H98.961v65.986
	l55.55,98.546c-32.977,28.486-53.955,70.553-53.955,117.561c0,85.927,69.796,155.478,155.412,155.478
	c85.926,0,155.455-69.551,155.455-155.478c0-50.67-24.425-95.914-62.036-124.131l63.643-90.443V74.431H298.846V207.094z
	 M355.873,356.523c0,55.015-44.869,99.925-99.905,99.925c-54.951,0-99.638-44.91-99.638-99.925
	c0-54.974,44.687-99.649,99.638-99.649C311.004,256.875,355.873,301.551,355.873,356.523z M54.938,0v45.045h402.125V0H54.938z
	 M252.821,263.475l-19.963,61.023h-64.016c-1.542,0-2.943,1.007-3.426,2.441c-0.481,1.498,0.021,3.039,1.146,3.938l51.89,37.652
	l-19.982,61.396c-0.493,1.499,0.021,3.062,1.401,3.939c1.146,0.984,2.944,0.984,4.057,0l52.04-37.89l52.02,37.89
	c0.792,0.491,1.412,0.664,2.098,0.664c0.813,0,1.412-0.173,2.248-0.664c1.134-0.877,1.647-2.44,1.155-3.939l-19.994-61.396
	l51.934-37.652c1.393-0.898,1.928-2.439,1.413-3.938c-0.493-1.436-1.927-2.441-3.469-2.441h-64.049l-19.886-61.003
	c-0.473-1.456-1.948-2.462-3.47-2.462C254.49,261.033,253.035,262.039,252.821,263.475z"/>
</svg>
