<?xml version="1.0" encoding="utf-8"?>
<!-- Generator: Adobe Illustrator 16.0.4, SVG Export Plug-In . SVG Version: 6.00 Build 0)  -->
<svg version="1.2" baseProfile="tiny" id="Layer_1" xmlns="http://www.w3.org/2000/svg" xmlns:xlink="http://www.w3.org/1999/xlink"
	 x="0px" y="0px" width="512px" height="512px" viewBox="0 0 512 512" xml:space="preserve">
<path d="M358.872,105.62h-6.457H153.169L94.78,187.477L255.99,406.4l161.281-218.924L358.872,105.62z M230.08,174.849l25.93-34.553
	l25.91,34.553H230.08z M286.764,199.777l-30.754,127.7l-30.762-127.699L286.764,199.777L286.764,199.777z M279.795,130.519h49.326
	l-24.663,32.755L279.795,130.519z M207.562,163.273l-24.612-32.734h49.337L207.562,163.273z M185.219,174.849H134.35l24.745-34.624
	L185.219,174.849z M199.665,199.777l31.447,130.917l-96.344-130.917H199.665z M312.346,199.777h64.794l-96.222,130.846
	L312.346,199.777z M326.853,174.849l26.114-34.604l24.663,34.604H326.853z M255.99,512C114.866,512,0,397.185,0,256.021
	C0,114.815,114.866,0,255.99,0C397.164,0,512,114.815,512,256.021C512,397.185,397.164,512,255.99,512z M255.99,38.251
	c-120.077,0-217.738,97.671-217.738,217.769c0,120.066,97.662,217.728,217.738,217.728c120.066,0,217.758-97.661,217.758-217.728
	C473.748,135.923,376.057,38.251,255.99,38.251z"/>
</svg>
