<?xml version="1.0" encoding="utf-8"?>
<!-- Generator: Adobe Illustrator 16.0.4, SVG Export Plug-In . SVG Version: 6.00 Build 0)  -->
<svg version="1.2" baseProfile="tiny" id="Layer_1" xmlns="http://www.w3.org/2000/svg" xmlns:xlink="http://www.w3.org/1999/xlink"
	 x="0px" y="0px" width="512px" height="512px" viewBox="0 0 512 512" xml:space="preserve">
<path d="M512,283.885V225.63l-8.24-2.668l-62.365-20.356l-16.625-40.197l31.99-67.688L415.558,53.52l-7.75,3.898l-58.462,29.727
	l-40.163-16.659L283.895,0h-58.211l-2.721,8.25l-20.356,62.36l-40.164,16.66L94.73,55.274L53.52,96.447l3.942,7.74l29.683,58.505
	L70.52,202.817L0,228.101v58.264l8.24,2.674l62.404,20.365l16.615,40.191l-31.98,67.674l41.164,41.212l7.75-3.896l58.5-29.74
	l40.163,16.674l25.25,70.48h58.26l2.721-8.25l20.347-62.355l40.163-16.653l67.685,31.99l41.24-41.174l-3.935-7.75l-29.729-58.499
	l16.664-40.154L512,283.885z M256,337.577c-45.058,0-81.577-36.521-81.577-81.577c0-45.053,36.52-81.572,81.577-81.572
	c45.105,0,81.625,36.52,81.625,81.572C337.625,301.059,301.105,337.577,256,337.577z"/>
</svg>
