<?xml version="1.0" encoding="utf-8"?>
<!-- Generator: Adobe Illustrator 16.0.4, SVG Export Plug-In . SVG Version: 6.00 Build 0)  -->
<svg version="1.2" baseProfile="tiny" id="Layer_1" xmlns="http://www.w3.org/2000/svg" xmlns:xlink="http://www.w3.org/1999/xlink"
	 x="0px" y="0px" width="512px" height="512px" viewBox="0 0 512 512" xml:space="preserve">
<path d="M511.512,196.812c-1.316-4.086-5.145-6.894-9.441-6.894H321.357l-55.914-172.78c-1.317-4.105-5.146-6.894-9.442-6.894
	s-8.125,2.769-9.452,6.875l-56.24,172.798H9.933c-4.298,0-8.125,2.789-9.442,6.894c-1.327,4.106,0.106,8.635,3.567,11.173
	L150.03,314.926L93.799,488.66c-1.327,4.104,0.105,8.645,3.605,11.172c3.452,2.549,8.202,2.549,11.692,0L256,392.572l146.606,107.26
	c1.729,1.299,3.788,1.924,5.808,1.924c2.067,0,4.125-0.625,5.847-1.924c3.5-2.547,4.972-7.047,3.645-11.172l-56.27-173.732
	l146.271-106.923C511.396,205.447,512.839,200.918,511.512,196.812z"/>
</svg>
